<svg xmlns="http://www.w3.org/2000/svg" width="1280" height="640" viewBox="0 0 1280 640" preserveAspectRatio="xMidYMid slice">

      <defs>
        <linearGradient id="grad1" x1="0" y1="0" x2="1" y2="1">
          <stop offset="0%" stop-color="#22d3ee" />
          <stop offset="45%" stop-color="#60a5fa" />
          <stop offset="85%" stop-color="#a78bfa" />
          <stop offset="100%" stop-color="#f472b6" />
        </linearGradient>
        <radialGradient id="glow1" cx="20%" cy="-10%" r="80%">
          <stop offset="0%" stop-color="#22d3ee33"/>
          <stop offset="100%" stop-color="#00000000"/>
        </radialGradient>
        <radialGradient id="glow2" cx="80%" cy="110%" r="80%">
          <stop offset="0%" stop-color="#a78bfa33"/>
          <stop offset="100%" stop-color="#00000000"/>
        </radialGradient>
        <filter id="grain">
          <feTurbulence type="fractalNoise" baseFrequency="0.8" numOctaves="2" stitchTiles="stitch" result="n" />
          <feColorMatrix type="saturate" values="0"/>
          <feComponentTransfer>
            <feFuncA type="table" tableValues="0 0.04"/>
          </feComponentTransfer>
        </filter>
      </defs>
    
<rect width="100%" height="100%" fill="#101723"/>
<rect width="100%" height="100%" fill="url(#grad1)" opacity="0.22"/>
<rect width="100%" height="100%" fill="url(#glow1)"/><rect width="100%" height="100%" fill="url(#glow2)"/>
<g transform="rotate(-9.990464627055362 964.8929422853878 61.227447095928795)" fill="#22d3ee" opacity="0.13774186681073974"><circle cx="964.8929422853878" cy="61.227447095928795" r="17.010358648792025" />
<circle cx="949.7726234864615" cy="36.65692904767365" r="9.450199249328902" />
<circle cx="964.8929422853878" cy="30.98680949807631" r="9.450199249328902" />
<circle cx="980.0132610843141" cy="36.65692904767365" r="9.450199249328902" />
<circle cx="964.8929422853878" cy="44.217088447136774" r="9.450199249328902" /></g>
<path d="
    M 293.2695396194471 428.0847852883604
    a 10.289769269645102 10.289769269645102 0 1 0 0 20.579538539290205 
    h 79.16635665414765
    a 10.289769269645102 10.289769269645102 0 1 0 0 -20.579538539290205
    h -79.16635665414765
    Z" fill="#60a5fa" opacity="0.07953696282367792"/>
<path d="
    M 1098.8370357944955 62.57022896573791
    a 11.874387216127248 11.874387216127248 0 1 0 0 23.748774432254496 
    h 55.71618441561077
    a 11.874387216127248 11.874387216127248 0 1 0 0 -23.748774432254496
    h -55.71618441561077
    Z" fill="#60a5fa" opacity="0.08355999905207097"/>
<path d="
    M 601.8593049353568 346.00172921941567
    a 7.60929290126272 7.60929290126272 0 1 0 0 15.21858580252544 
    h 37.61970183172775
    a 7.60929290126272 7.60929290126272 0 1 0 0 -15.21858580252544
    h -37.61970183172775
    Z" fill="#22d3ee" opacity="0.09787030929792728"/>
<g transform="rotate(-19.06378696552154 436.8196180096153 541.2888160322442)" fill="#f472b6" opacity="0.13431295119312806"><ellipse cx="436.8196180096153" cy="541.2888160322442" rx="30.75558503951026" ry="12.040488835977497" />
M 467.57520304912555 541.2888160322442 L 479.61569188510305 529.2483271962667 L 479.61569188510305 553.3293048682217 Z
<circle cx="447.071479689452" cy="538.2786938232498" r="1.5" /></g>
<g transform="rotate(-21.345389325951754 769.4743525399207 629.9253659573741)" fill="#60a5fa" opacity="0.12759711590394046"><ellipse cx="769.4743525399207" cy="629.9253659573741" rx="19.08520503707396" ry="9.913727815933488" />
M 788.5595575769946 629.9253659573741 L 798.4732853929281 620.0116381414406 L 798.4732853929281 639.8390937733076 Z
<circle cx="775.8360875522786" cy="627.4469340033908" r="1.5" /></g>
<g transform="rotate(18.138361523011653 599.1656157029624 610.5254284818222)" fill="#22d3ee" opacity="0.07123456875813579"><circle cx="599.1656157029624" cy="610.5254284818222" r="10.99537306187857" />
<circle cx="589.3919507590704" cy="594.6432229479976" r="6.10854058993254" />
<circle cx="599.1656157029624" cy="590.9780985940381" r="6.10854058993254" />
<circle cx="608.9392806468545" cy="594.6432229479976" r="6.10854058993254" />
<circle cx="599.1656157029624" cy="599.5300554199437" r="6.10854058993254" /></g>
<g transform="rotate(-10.512464542509942 1088.9627247932303 194.15676611118272)" fill="#60a5fa" opacity="0.09959969011614211"><ellipse cx="1088.9627247932303" cy="194.15676611118272" rx="30.16596793934315" ry="11.021842489658164" />
M 1119.1286927325734 194.15676611118272 L 1130.1505352222316 183.13492362152456 L 1130.1505352222316 205.17860860084087 Z
<circle cx="1099.018047439678" cy="191.40130548876817" r="1.5" /></g>
<g transform="rotate(19.452199890679395 701.4842909265157 45.75237413554383)" fill="#2dd4bf" opacity="0.06474997106385427"><circle cx="701.4842909265157" cy="45.75237413554383" r="11.153907936617513" />
<circle cx="691.5697060939667" cy="29.64117378265187" r="6.196615520343062" />
<circle cx="701.4842909265157" cy="25.92320447044603" r="6.196615520343062" />
<circle cx="711.3988757590646" cy="29.64117378265187" r="6.196615520343062" />
<circle cx="701.4842909265157" cy="34.59846619892632" r="6.196615520343062" /></g>
<g transform="rotate(-17.087144880490975 679.6275513061178 70.83706524351278)" fill="#a78bfa" opacity="0.09656347662299339"><circle cx="679.6275513061178" cy="70.83706524351278" r="14.351229677086373" />
<circle cx="666.8709027042632" cy="50.10751126549913" r="7.972905376159096" />
<circle cx="679.6275513061178" cy="45.323768039803674" r="7.972905376159096" />
<circle cx="692.3841999079723" cy="50.10751126549913" r="7.972905376159096" />
<circle cx="679.6275513061178" cy="56.48583556642641" r="7.972905376159096" /></g>
<g transform="rotate(15.02236893931449 772.9108855091333 228.14864324635374)" fill="#60a5fa" opacity="0.08208143484965331"><circle cx="772.9108855091333" cy="228.14864324635374" r="12.466520360685259" />
<circle cx="761.8295340774131" cy="210.14144716980837" r="6.925844644825143" />
<circle cx="772.9108855091333" cy="205.98594038291327" r="6.925844644825143" />
<circle cx="783.9922369408536" cy="210.14144716980837" r="6.925844644825143" />
<circle cx="772.9108855091333" cy="215.6821228856685" r="6.925844644825143" /></g>
<path d="
    M 301.836375728292 517.1200366563545
    a 10.884720498456954 10.884720498456954 0 1 0 0 21.769440996913907 
    h 81.31188233841408
    a 10.884720498456954 10.884720498456954 0 1 0 0 -21.769440996913907
    h -81.31188233841408
    Z" fill="#2dd4bf" opacity="0.12044144371324911"/>
<g transform="rotate(24.004632575735506 732.4681692648617 488.8573015519579)" fill="#60a5fa" opacity="0.12952414265224443"><ellipse cx="732.4681692648617" cy="488.8573015519579" rx="39.68855112331667" ry="16.27323734741437" />
M 772.1567203881783 488.8573015519579 L 788.4299577355927 472.58406420454355 L 788.4299577355927 505.13053889937225 Z
<circle cx="745.6976863059672" cy="484.7889922151043" r="1.5" /></g>
<g transform="rotate(12.545663936691518 995.6490841956052 564.3772775086169)" fill="#a78bfa" opacity="0.1064547356885159"><circle cx="995.6490841956052" cy="564.3772775086169" r="14.823994667982207" />
<circle cx="982.4722000462876" cy="542.964840765976" r="8.23555259332345" />
<circle cx="995.6490841956052" cy="538.0235092099819" r="8.23555259332345" />
<circle cx="1008.8259683449227" cy="542.964840765976" r="8.23555259332345" />
<circle cx="995.6490841956052" cy="549.5532828406347" r="8.23555259332345" /></g>
<path d="
    M 754.8457627210765 439.43387501660766
    a 9.568017269043695 9.568017269043695 0 1 0 0 19.13603453808739 
    h 34.74937512209135
    a 9.568017269043695 9.568017269043695 0 1 0 0 -19.13603453808739
    h -34.74937512209135
    Z" fill="#22d3ee" opacity="0.13969837879992347"/>
<g transform="rotate(5.1099077611877135 154.96042134627174 344.5429913216517)" fill="#f472b6" opacity="0.10122132196226571"><ellipse cx="154.96042134627174" cy="344.5429913216517" rx="26.082970635459677" ry="10.815455216740974" />
M 181.04339198173142 344.5429913216517 L 191.8588471984724 333.7275361049107 L 191.8588471984724 355.3584465383927 Z
<circle cx="163.65474489142497" cy="341.83912751746647" r="1.5" /></g>
<path d="
    M 248.43210539014677 179.26513722939487
    a 9.956300002534313 9.956300002534313 0 1 0 0 19.912600005068626 
    h 24.64541658664814
    a 9.956300002534313 9.956300002534313 0 1 0 0 -19.912600005068626
    h -24.64541658664814
    Z" fill="#22d3ee" opacity="0.1061075431350362"/>
<path d="
    M 236.55376772834774 54.03935797003287
    a 14.943920520145669 14.943920520145669 0 1 0 0 29.887841040291338 
    h 52.78027302691146
    a 14.943920520145669 14.943920520145669 0 1 0 0 -29.887841040291338
    h -52.78027302691146
    Z" fill="#f472b6" opacity="0.0633439288881255"/>
<g transform="rotate(-14.131572647516876 463.53909953730295 574.8423598210668)" fill="#60a5fa" opacity="0.11037705224848215"><circle cx="463.53909953730295" cy="574.8423598210668" r="16.867970347749008" />
<circle cx="448.54534811708163" cy="550.4775137632071" r="9.371094637638338" />
<circle cx="463.53909953730295" cy="544.8548569806242" r="9.371094637638338" />
<circle cx="478.53285095752426" cy="550.4775137632071" r="9.371094637638338" />
<circle cx="463.53909953730295" cy="557.9743894733178" r="9.371094637638338" /></g>
<g transform="rotate(22.20900848979901 905.8208347140053 226.6002181370959)" fill="#60a5fa" opacity="0.13840063380864587"><ellipse cx="905.8208347140053" cy="226.6002181370959" rx="23.48370416064847" ry="12.63054707240731" />
M 929.3045388746538 226.6002181370959 L 941.9350859470611 213.9696710646886 L 941.9350859470611 239.2307652095032 Z
<circle cx="913.6487361008881" cy="223.44258136899407" r="1.5" /></g>
<path d="
    M 1185.486244683774 453.29844860243406
    a 7.289532059415814 7.289532059415814 0 1 0 0 14.579064118831628 
    h 46.118762749371854
    a 7.289532059415814 7.289532059415814 0 1 0 0 -14.579064118831628
    h -46.118762749371854
    Z" fill="#2dd4bf" opacity="0.09848912156342812"/>
<g transform="rotate(8.454565323383363 1191.3635434698344 309.39009441633516)" fill="#2dd4bf" opacity="0.11173322060106528"><ellipse cx="1191.3635434698344" cy="309.39009441633516" rx="30.531467289169175" ry="8.464648046960955" />
M 1221.8950107590035 309.39009441633516 L 1230.3596588059645 300.9254463693742 L 1230.3596588059645 317.85474246329613 Z
<circle cx="1201.5406992328908" cy="307.2739324045949" r="1.5" /></g>
<g transform="rotate(22.77413823938533 884.2570003943011 75.14704129280403)" fill="#2dd4bf" opacity="0.07248855438182315"><circle cx="884.2570003943011" cy="75.14704129280403" r="13.528832466935327" />
<circle cx="872.2313715348031" cy="55.60539439611967" r="7.516018037186293" />
<circle cx="884.2570003943011" cy="51.09578357380789" r="7.516018037186293" />
<circle cx="896.2826292537992" cy="55.60539439611967" r="7.516018037186293" />
<circle cx="884.2570003943011" cy="61.618208825868706" r="7.516018037186293" /></g>
<g transform="rotate(-18.56763481846937 574.7878477887076 537.7410335080087)" fill="#2dd4bf" opacity="0.11305283134654595"><ellipse cx="574.7878477887076" cy="537.7410335080087" rx="26.69189579693533" ry="10.70215598066959" />
M 601.479743585643 537.7410335080087 L 612.1818995663125 527.0388775273392 L 612.1818995663125 548.4431894886783 Z
<circle cx="583.685146387686" cy="535.0654945128414" r="1.5" /></g>
<path d="M0 499.2 C 320.0 459.2, 960.0 539.2, 1280 499.2 L 1280 640 L 0 640 Z" fill="#0c131b" opacity="0.55"/><!-- blends with dark surface -->
<rect width="100%" height="100%" filter="url(#grain)"/>
</svg>