<svg xmlns="http://www.w3.org/2000/svg" width="1920" height="640" viewBox="0 0 1920 640" preserveAspectRatio="xMidYMid slice">

      <defs>
        <linearGradient id="grad1" x1="0" y1="0" x2="1" y2="1">
          <stop offset="0%" stop-color="#22d3ee" />
          <stop offset="45%" stop-color="#60a5fa" />
          <stop offset="85%" stop-color="#a78bfa" />
          <stop offset="100%" stop-color="#f472b6" />
        </linearGradient>
        <radialGradient id="glow1" cx="20%" cy="-10%" r="80%">
          <stop offset="0%" stop-color="#22d3ee33"/>
          <stop offset="100%" stop-color="#00000000"/>
        </radialGradient>
        <radialGradient id="glow2" cx="80%" cy="110%" r="80%">
          <stop offset="0%" stop-color="#a78bfa33"/>
          <stop offset="100%" stop-color="#00000000"/>
        </radialGradient>
        <filter id="grain">
          <feTurbulence type="fractalNoise" baseFrequency="0.8" numOctaves="2" stitchTiles="stitch" result="n" />
          <feColorMatrix type="saturate" values="0"/>
          <feComponentTransfer>
            <feFuncA type="table" tableValues="0 0.04"/>
          </feComponentTransfer>
        </filter>
      </defs>
    
<rect width="100%" height="100%" fill="#101723"/>
<rect width="100%" height="100%" fill="url(#grad1)" opacity="0.22"/>
<rect width="100%" height="100%" fill="url(#glow1)"/><rect width="100%" height="100%" fill="url(#glow2)"/>
<path d="
    M 141.38023412025927 572.2798007112297
    a 8.644072699940732 8.644072699940732 0 1 0 0 17.288145399881465 
    h 48.393746850807474
    a 8.644072699940732 8.644072699940732 0 1 0 0 -17.288145399881465
    h -48.393746850807474
    Z" fill="#f472b6" opacity="0.10527673963577641"/>
<g transform="rotate(0.9236073625430485 1880.9196910908286 638.0684599650154)" fill="#f472b6" opacity="0.07892077438119875"><circle cx="1880.9196910908286" cy="638.0684599650154" r="17.850788076589282" />
<circle cx="1865.052323911638" cy="612.283988298831" r="9.917104486994045" />
<circle cx="1880.9196910908286" cy="606.3337256066345" r="9.917104486994045" />
<circle cx="1896.787058270019" cy="612.283988298831" r="9.917104486994045" />
<circle cx="1880.9196910908286" cy="620.2176718884261" r="9.917104486994045" /></g>
<g transform="rotate(-21.174131962558345 402.90953024333584 126.89870838991361)" fill="#2dd4bf" opacity="0.10730489999506226"><circle cx="402.90953024333584" cy="126.89870838991361" r="14.41957386140083" />
<circle cx="390.09213125542396" cy="106.07043503455685" r="8.010874367444906" />
<circle cx="402.90953024333584" cy="101.2639104140899" r="8.010874367444906" />
<circle cx="415.7269292312477" cy="106.07043503455685" r="8.010874367444906" />
<circle cx="402.90953024333584" cy="112.47913452851277" r="8.010874367444906" /></g>
<g transform="rotate(3.340892725732818 1009.6041865792104 405.8906791564644)" fill="#60a5fa" opacity="0.07292001052726746"><circle cx="1009.6041865792104" cy="405.8906791564644" r="17.707698950590736" />
<circle cx="993.8640097342408" cy="380.31289178338886" r="9.837610528105964" />
<circle cx="1009.6041865792104" cy="374.4103254665253" r="9.837610528105964" />
<circle cx="1025.3443634241798" cy="380.31289178338886" r="9.837610528105964" />
<circle cx="1009.6041865792104" cy="388.18298020587366" r="9.837610528105964" /></g>
<g transform="rotate(-6.467090355378325 650.190947933694 518.6856512719014)" fill="#22d3ee" opacity="0.12035746554715242"><ellipse cx="650.190947933694" cy="518.6856512719014" rx="14.961567890078467" ry="6.161321486590109" />
M 665.1525158237724 518.6856512719014 L 671.3138373103625 512.5243297853114 L 671.3138373103625 524.8469727584915 Z
<circle cx="655.1781372303868" cy="517.1453209002539" r="1.5" /></g>
<g transform="rotate(-11.271744932871442 1905.281346570783 95.08609094051572)" fill="#f472b6" opacity="0.0817358396829647"><circle cx="1905.281346570783" cy="95.08609094051572" r="10.297229816835916" />
<circle cx="1896.128253400262" cy="80.21231453841939" r="5.720683231575508" />
<circle cx="1905.281346570783" cy="76.7799045994741" r="5.720683231575508" />
<circle cx="1914.4344397413038" cy="80.21231453841939" r="5.720683231575508" />
<circle cx="1905.281346570783" cy="84.7888611236798" r="5.720683231575508" /></g>
<g transform="rotate(14.801415298765406 1107.0906144184921 619.0651326199966)" fill="#f472b6" opacity="0.09856027163398212"><ellipse cx="1107.0906144184921" cy="619.0651326199966" rx="21.74950616485623" ry="10.259847671298642" />
M 1128.8401205833484 619.0651326199966 L 1139.099968254647 608.8052849486979 L 1139.099968254647 629.3249802912952 Z
<circle cx="1114.3404498067775" cy="616.5001707021719" r="1.5" /></g>
<g transform="rotate(3.3747847165579152 781.2415196662497 248.06557980871253)" fill="#22d3ee" opacity="0.10168997238436718"><ellipse cx="781.2415196662497" cy="248.06557980871253" rx="31.47349897942878" ry="16.858549305662624" />
M 812.7150186456785 248.06557980871253 L 829.5735679513411 231.2070305030499 L 829.5735679513411 264.92412911437515 Z
<circle cx="791.7326859927259" cy="243.85094248229686" r="1.5" /></g>
<path d="
    M 313.473482071278 183.58460988294627
    a 9.308842975319296 9.308842975319296 0 1 0 0 18.61768595063859 
    h 83.79165512352233
    a 9.308842975319296 9.308842975319296 0 1 0 0 -18.61768595063859
    h -83.79165512352233
    Z" fill="#f472b6" opacity="0.13993172495071332"/>
<path d="
    M 172.1438248072186 610.1381319200243
    a 7.254382426285783 7.254382426285783 0 1 0 0 14.508764852571566 
    h 34.77297156542005
    a 7.254382426285783 7.254382426285783 0 1 0 0 -14.508764852571566
    h -34.77297156542005
    Z" fill="#2dd4bf" opacity="0.0669275384316541"/>
<path d="
    M 1109.920816690084 246.22292773604693
    a 7.8273643423005215 7.8273643423005215 0 1 0 0 15.654728684601043 
    h 63.445875279704524
    a 7.8273643423005215 7.8273643423005215 0 1 0 0 -15.654728684601043
    h -63.445875279704524
    Z" fill="#f472b6" opacity="0.09156821206313595"/>
<g transform="rotate(-24.7893090260031 860.6264951520766 171.992658398758)" fill="#60a5fa" opacity="0.11136186427701802"><ellipse cx="860.6264951520766" cy="171.992658398758" rx="18.31702133535671" ry="11.608662331976955" />
M 878.9435164874333 171.992658398758 L 890.5521788194102 160.38399606678107 L 890.5521788194102 183.60132073073495 Z
<circle cx="866.7321689305288" cy="169.09049281576378" r="1.5" /></g>
<path d="
    M 269.4034016936741 215.42399875119224
    a 8.605790152509687 8.605790152509687 0 1 0 0 17.211580305019375 
    h 59.69564038250314
    a 8.605790152509687 8.605790152509687 0 1 0 0 -17.211580305019375
    h -59.69564038250314
    Z" fill="#a78bfa" opacity="0.09507106329495127"/>
<g transform="rotate(-10.230087321034059 581.7049079461754 226.4561519784828)" fill="#22d3ee" opacity="0.07869192744357643"><circle cx="581.7049079461754" cy="226.4561519784828" r="19.27689210552626" />
<circle cx="564.5698927412632" cy="198.61175227050043" r="10.709384503070146" />
<circle cx="581.7049079461754" cy="192.18612156865834" r="10.709384503070146" />
<circle cx="598.8399231510875" cy="198.61175227050043" r="10.709384503070146" />
<circle cx="581.7049079461754" cy="207.17925987295655" r="10.709384503070146" /></g>
<g transform="rotate(9.757488486480405 1311.2699124235123 96.77381752804955)" fill="#60a5fa" opacity="0.06271021190140784"><circle cx="1311.2699124235123" cy="96.77381752804955" r="15.83560408621765" />
<circle cx="1297.19381990243" cy="73.90016718129073" r="8.797557825676472" />
<circle cx="1311.2699124235123" cy="68.62163248588485" r="8.797557825676472" />
<circle cx="1325.3460049445946" cy="73.90016718129073" r="8.797557825676472" />
<circle cx="1311.2699124235123" cy="80.93821344183189" r="8.797557825676472" /></g>
<path d="
    M 414.55138389381983 198.48418610253773
    a 11.24057456537693 11.24057456537693 0 1 0 0 22.48114913075386 
    h 41.076152336139444
    a 11.24057456537693 11.24057456537693 0 1 0 0 -22.48114913075386
    h -41.076152336139444
    Z" fill="#22d3ee" opacity="0.07510822512730521"/>
<g transform="rotate(8.832628268344621 1825.5603699068397 434.4093346041843)" fill="#2dd4bf" opacity="0.1191074520708358"><circle cx="1825.5603699068397" cy="434.4093346041843" r="11.178310559780448" />
<circle cx="1815.6240938537014" cy="418.2628860178348" r="6.2101725332113595" />
<circle cx="1825.5603699068397" cy="414.53678249790795" r="6.2101725332113595" />
<circle cx="1835.496645959978" cy="418.2628860178348" r="6.2101725332113595" />
<circle cx="1825.5603699068397" cy="423.23102404440385" r="6.2101725332113595" /></g>
<path d="
    M 1443.7941055085755 130.4836239727497
    a 6.658527183632699 6.658527183632699 0 1 0 0 13.317054367265397 
    h 33.54571409024311
    a 6.658527183632699 6.658527183632699 0 1 0 0 -13.317054367265397
    h -33.54571409024311
    Z" fill="#2dd4bf" opacity="0.09336526193952017"/>
<path d="
    M 1872.751741861066 162.9272714905796
    a 9.894708310779919 9.894708310779919 0 1 0 0 19.789416621559837 
    h 72.02226129938981
    a 9.894708310779919 9.894708310779919 0 1 0 0 -19.789416621559837
    h -72.02226129938981
    Z" fill="#22d3ee" opacity="0.13464892107665136"/>
<path d="
    M 963.7166408298712 89.0563703691274
    a 6.91740535291022 6.91740535291022 0 1 0 0 13.83481070582044 
    h 24.250645973942937
    a 6.91740535291022 6.91740535291022 0 1 0 0 -13.83481070582044
    h -24.250645973942937
    Z" fill="#2dd4bf" opacity="0.07103587398899194"/>
<g transform="rotate(18.55067128541304 1087.7035360942175 23.74557737680277)" fill="#f472b6" opacity="0.08776448789947691"><ellipse cx="1087.7035360942175" cy="23.74557737680277" rx="23.002110349783546" ry="11.82220442369444" />
M 1110.705646444001 23.74557737680277 L 1122.5278508676956 11.92337295310833 L 1122.5278508676956 35.567781800497215 Z
<circle cx="1095.370906210812" cy="20.79002627087916" r="1.5" /></g>
<g transform="rotate(-13.088781623894462 1492.0578068418145 603.817171621218)" fill="#2dd4bf" opacity="0.10951245930046605"><ellipse cx="1492.0578068418145" cy="603.817171621218" rx="19.76968016092895" ry="9.471793985470322" />
M 1511.8274870027435 603.817171621218 L 1521.299280988214 594.3453776357477 L 1521.299280988214 613.2889656066883 Z
<circle cx="1498.6477002287909" cy="601.4492231248504" r="1.5" /></g>
<path d="
    M 1328.8747299992726 377.5538074781578
    a 8.45720681012868 8.45720681012868 0 1 0 0 16.91441362025736 
    h 45.23355775301616
    a 8.45720681012868 8.45720681012868 0 1 0 0 -16.91441362025736
    h -45.23355775301616
    Z" fill="#22d3ee" opacity="0.12392951136100007"/>
<g transform="rotate(2.190815832020288 716.5895481202842 463.0025405200313)" fill="#2dd4bf" opacity="0.09555394631715083"><ellipse cx="716.5895481202842" cy="463.0025405200313" rx="15.562207772348515" ry="8.614171331691583" />
M 732.1517558926328 463.0025405200313 L 740.7659272243244 454.3883691883397 L 740.7659272243244 471.61671185172287 Z
<circle cx="721.7769507110671" cy="460.8489976871084" r="1.5" /></g>
<path d="M0 499.2 C 480.0 459.2, 1440.0 539.2, 1920 499.2 L 1920 640 L 0 640 Z" fill="#0c131b" opacity="0.55"/><!-- blends with dark surface -->
<rect width="100%" height="100%" filter="url(#grain)"/>
</svg>