<svg xmlns="http://www.w3.org/2000/svg" width="768" height="640" viewBox="0 0 768 640" preserveAspectRatio="xMidYMid slice">

      <defs>
        <linearGradient id="grad1" x1="0" y1="0" x2="1" y2="1">
          <stop offset="0%" stop-color="#22d3ee" />
          <stop offset="45%" stop-color="#60a5fa" />
          <stop offset="85%" stop-color="#a78bfa" />
          <stop offset="100%" stop-color="#f472b6" />
        </linearGradient>
        <radialGradient id="glow1" cx="20%" cy="-10%" r="80%">
          <stop offset="0%" stop-color="#22d3ee33"/>
          <stop offset="100%" stop-color="#00000000"/>
        </radialGradient>
        <radialGradient id="glow2" cx="80%" cy="110%" r="80%">
          <stop offset="0%" stop-color="#a78bfa33"/>
          <stop offset="100%" stop-color="#00000000"/>
        </radialGradient>
        <filter id="grain">
          <feTurbulence type="fractalNoise" baseFrequency="0.8" numOctaves="2" stitchTiles="stitch" result="n" />
          <feColorMatrix type="saturate" values="0"/>
          <feComponentTransfer>
            <feFuncA type="table" tableValues="0 0.04"/>
          </feComponentTransfer>
        </filter>
      </defs>
    
<rect width="100%" height="100%" fill="#101723"/>
<rect width="100%" height="100%" fill="url(#grad1)" opacity="0.22"/>
<rect width="100%" height="100%" fill="url(#glow1)"/><rect width="100%" height="100%" fill="url(#glow2)"/>
<path d="
    M 403.0590441955049 85.39456188625229
    a 11.648481408564713 11.648481408564713 0 1 0 0 23.296962817129426 
    h 38.232250593813774
    a 11.648481408564713 11.648481408564713 0 1 0 0 -23.296962817129426
    h -38.232250593813774
    Z" fill="#2dd4bf" opacity="0.08666939111709028"/>
<path d="
    M 723.7060664455952 358.1912892356615
    a 10.65709468633116 10.65709468633116 0 1 0 0 21.31418937266232 
    h 52.20596878160973
    a 10.65709468633116 10.65709468633116 0 1 0 0 -21.31418937266232
    h -52.20596878160973
    Z" fill="#60a5fa" opacity="0.1370465218759127"/>
<g transform="rotate(22.85933014092673 155.08201385282123 34.90048830541511)" fill="#f472b6" opacity="0.13047207312755402"><ellipse cx="155.08201385282123" cy="34.90048830541511" rx="24.907071408472316" ry="13.348863932951854" />
M 179.98908526129355 34.90048830541511 L 193.3379491942454 21.551624372463255 L 193.3379491942454 48.24935223836697 Z
<circle cx="163.38437098897867" cy="31.563272322177145" r="1.5" /></g>
<g transform="rotate(-10.205377592162257 64.57348344403641 98.10220263829343)" fill="#a78bfa" opacity="0.10155129397710604"><circle cx="64.57348344403641" cy="98.10220263829343" r="9.876546186042349" />
<circle cx="55.79433127866544" cy="83.8360803695656" r="5.48697010335686" />
<circle cx="64.57348344403641" cy="80.54389830755147" r="5.48697010335686" />
<circle cx="73.35263560940739" cy="83.8360803695656" r="5.48697010335686" />
<circle cx="64.57348344403641" cy="88.22565645225109" r="5.48697010335686" /></g>
<g transform="rotate(16.838584489963374 346.15324628650626 342.5525346409736)" fill="#f472b6" opacity="0.09655972263606326"><circle cx="346.15324628650626" cy="342.5525346409736" r="18.925353534618978" />
<circle cx="329.3307098112894" cy="315.21591286874616" r="10.514085297010542" />
<circle cx="346.15324628650626" cy="308.90746169053983" r="10.514085297010542" />
<circle cx="362.9757827617231" cy="315.21591286874616" r="10.514085297010542" />
<circle cx="346.15324628650626" cy="323.6271811063546" r="10.514085297010542" /></g>
<g transform="rotate(-3.741391379172228 646.8554332547187 318.97681005227787)" fill="#f472b6" opacity="0.11586857245759377"><circle cx="646.8554332547187" cy="318.97681005227787" r="10.932620046822239" />
<circle cx="637.1375487686545" cy="303.1852477624235" r="6.073677803790133" />
<circle cx="646.8554332547187" cy="299.54104108014945" r="6.073677803790133" />
<circle cx="656.573317740783" cy="303.1852477624235" r="6.073677803790133" />
<circle cx="646.8554332547187" cy="308.0441900054556" r="6.073677803790133" /></g>
<g transform="rotate(1.1306118469139719 531.2862268827307 275.6291139266952)" fill="#f472b6" opacity="0.06890496245332764"><circle cx="531.2862268827307" cy="275.6291139266952" r="15.993138091128927" />
<circle cx="517.0701041350605" cy="252.5279144617312" r="8.885076717293849" />
<circle cx="531.2862268827307" cy="247.1968684313549" r="8.885076717293849" />
<circle cx="545.5023496304009" cy="252.5279144617312" r="8.885076717293849" />
<circle cx="531.2862268827307" cy="259.6359758355663" r="8.885076717293849" /></g>
<g transform="rotate(11.176789000958628 533.8215468483226 246.30667648498246)" fill="#f472b6" opacity="0.11693058726889641"><ellipse cx="533.8215468483226" cy="246.30667648498246" rx="23.14251539705202" ry="8.911400991079823" />
M 556.9640622453745 246.30667648498246 L 565.8754632364544 237.39527549390263 L 565.8754632364544 255.2180774760623 Z
<circle cx="541.5357186473399" cy="244.0788262372125" r="1.5" /></g>
<g transform="rotate(20.073819612726865 26.840173514469882 455.66345477339866)" fill="#f472b6" opacity="0.07545213566997604"><ellipse cx="26.840173514469882" cy="455.66345477339866" rx="19.916853575677802" ry="10.714174850506003" />
M 46.75702709014769 455.66345477339866 L 57.47120194065369 444.94927992289263 L 57.47120194065369 466.3776296239047 Z
<circle cx="33.479124706362484" cy="452.98491106077216" r="1.5" /></g>
<g transform="rotate(-13.161309025905544 178.77211613153966 173.2071171722164)" fill="#f472b6" opacity="0.06216475778409181"><circle cx="178.77211613153966" cy="173.2071171722164" r="13.41744851456308" />
<circle cx="166.84549522970582" cy="153.82635820673642" r="7.454138063646156" />
<circle cx="178.77211613153966" cy="149.3538753685487" r="7.454138063646156" />
<circle cx="190.6987370333735" cy="153.82635820673642" r="7.454138063646156" />
<circle cx="178.77211613153966" cy="159.78966865765332" r="7.454138063646156" /></g>
<path d="
    M 137.1159794514842 234.75789917758914
    a 9.489256648913445 9.489256648913445 0 1 0 0 18.97851329782689 
    h 39.9458189085442
    a 9.489256648913445 9.489256648913445 0 1 0 0 -18.97851329782689
    h -39.9458189085442
    Z" fill="#a78bfa" opacity="0.13633043420159496"/>
<g transform="rotate(11.012211773871897 113.1666047630074 58.294713080157834)" fill="#22d3ee" opacity="0.08717596422976065"><ellipse cx="113.1666047630074" cy="58.294713080157834" rx="26.141278973833042" ry="10.700754344671543" />
M 139.30788373684044 58.294713080157834 L 150.00863808151198 47.59395873548629 L 150.00863808151198 68.99546742482937 Z
<circle cx="121.88036442095175" cy="55.61952449398995" r="1.5" /></g>
<g transform="rotate(21.264230161343967 670.7937804969008 389.6151062549526)" fill="#2dd4bf" opacity="0.13851883096328294"><ellipse cx="670.7937804969008" cy="389.6151062549526" rx="30.18609805765324" ry="13.190931355862492" />
M 700.979878554554 389.6151062549526 L 714.1708099104166 376.4241748990901 L 714.1708099104166 402.8060376108151 Z
<circle cx="680.8558131827853" cy="386.317373415987" r="1.5" /></g>
<g transform="rotate(-23.18097933500798 288.6804975322979 58.38125116611444)" fill="#60a5fa" opacity="0.07307580664994566"><circle cx="288.6804975322979" cy="58.38125116611444" r="18.21393864185877" />
<circle cx="272.4903298506457" cy="32.07222868342954" r="10.11885480103265" />
<circle cx="288.6804975322979" cy="26.000915802809956" r="10.11885480103265" />
<circle cx="304.87066521395013" cy="32.07222868342954" r="10.11885480103265" />
<circle cx="288.6804975322979" cy="40.167312524255664" r="10.11885480103265" /></g>
<g transform="rotate(14.982984641296198 458.8008788605474 57.67765556307225)" fill="#a78bfa" opacity="0.1367325992469174"><circle cx="458.8008788605474" cy="57.67765556307225" r="12.08730222465394" />
<circle cx="448.0566102164106" cy="40.21821901634989" r="6.715167902585522" />
<circle cx="458.8008788605474" cy="36.18911827479858" r="6.715167902585522" />
<circle cx="469.5451475046842" cy="40.21821901634989" r="6.715167902585522" />
<circle cx="458.8008788605474" cy="45.59035333841831" r="6.715167902585522" /></g>
<g transform="rotate(19.733428608096055 652.1772193554585 6.143741720879774)" fill="#a78bfa" opacity="0.11485371334060823"><circle cx="652.1772193554585" cy="6.143741720879774" r="14.296558797688789" />
<circle cx="639.4691670908463" cy="-14.506843209115143" r="7.94253266538266" />
<circle cx="652.1772193554585" cy="-19.272362808344738" r="7.94253266538266" />
<circle cx="664.8852716200707" cy="-14.506843209115143" r="7.94253266538266" />
<circle cx="652.1772193554585" cy="-8.152817076809015" r="7.94253266538266" /></g>
<g transform="rotate(-17.759507094166565 191.75961720783187 264.2299747210528)" fill="#60a5fa" opacity="0.11024153384312811"><circle cx="191.75961720783187" cy="264.2299747210528" r="13.857500381931821" />
<circle cx="179.44183909055914" cy="244.21358528048464" r="7.698611323295457" />
<circle cx="191.75961720783187" cy="239.59441848650738" r="7.698611323295457" />
<circle cx="204.0773953251046" cy="244.21358528048464" r="7.698611323295457" />
<circle cx="191.75961720783187" cy="250.372474339121" r="7.698611323295457" /></g>
<g transform="rotate(2.3986256924999445 10.985687788480533 233.72656631636218)" fill="#2dd4bf" opacity="0.11029920341408471"><circle cx="10.985687788480533" cy="233.72656631636218" r="10.008519260417541" />
<circle cx="2.089226223664941" cy="219.26981627353683" r="5.5602884780097455" />
<circle cx="10.985687788480533" cy="215.933643186731" r="5.5602884780097455" />
<circle cx="19.882149353296125" cy="219.26981627353683" r="5.5602884780097455" />
<circle cx="10.985687788480533" cy="223.71804705594465" r="5.5602884780097455" /></g>
<path d="
    M 440.2327908981689 552.0014889681331
    a 12.618994162245615 12.618994162245615 0 1 0 0 25.23798832449123 
    h 33.88740727551408
    a 12.618994162245615 12.618994162245615 0 1 0 0 -25.23798832449123
    h -33.88740727551408
    Z" fill="#a78bfa" opacity="0.13719913870106124"/>
<path d="
    M -20.56037545128055 339.11289947708406
    a 13.303730683020213 13.303730683020213 0 1 0 0 26.607461366040425 
    h 57.24659963222996
    a 13.303730683020213 13.303730683020213 0 1 0 0 -26.607461366040425
    h -57.24659963222996
    Z" fill="#f472b6" opacity="0.13247235531299767"/>
<g transform="rotate(4.437867684473655 437.0244732742715 578.2755822510245)" fill="#2dd4bf" opacity="0.09541153756020818"><ellipse cx="437.0244732742715" cy="578.2755822510245" rx="22.598924085583175" ry="10.055206787471619" />
M 459.62339735985466 578.2755822510245 L 469.67860414732627 568.2203754635528 L 469.67860414732627 588.3307890384962 Z
<circle cx="444.5574479694659" cy="575.7617805541566" r="1.5" /></g>
<path d="
    M 458.18772187453635 131.22169759890437
    a 9.90002236239678 9.90002236239678 0 1 0 0 19.80004472479356 
    h 57.54275794421346
    a 9.90002236239678 9.90002236239678 0 1 0 0 -19.80004472479356
    h -57.54275794421346
    Z" fill="#a78bfa" opacity="0.09579841232743354"/>
<path d="
    M 243.63977889712126 487.9148159978469
    a 15.158615559495532 15.158615559495532 0 1 0 0 30.317231118991064 
    h 62.94949787466035
    a 15.158615559495532 15.158615559495532 0 1 0 0 -30.317231118991064
    h -62.94949787466035
    Z" fill="#2dd4bf" opacity="0.13315095587528128"/>
<g transform="rotate(13.197341078769668 576.9894330207208 121.8584929037631)" fill="#f472b6" opacity="0.06597964060858234"><circle cx="576.9894330207208" cy="121.8584929037631" r="16.585415672615582" />
<circle cx="562.2468413117291" cy="97.90178137665171" r="9.214119818119768" />
<circle cx="576.9894330207208" cy="92.37330948577986" r="9.214119818119768" />
<circle cx="591.7320247297124" cy="97.90178137665171" r="9.214119818119768" />
<circle cx="576.9894330207208" cy="105.27307723114752" r="9.214119818119768" /></g>
<path d="M0 499.2 C 192.0 459.2, 576.0 539.2, 768 499.2 L 768 640 L 0 640 Z" fill="#0c131b" opacity="0.55"/><!-- blends with dark surface -->
<rect width="100%" height="100%" filter="url(#grain)"/>
</svg>